<?xml version="1.0" standalone="no"?>
<!DOCTYPE svg PUBLIC "-//W3C//DTD SVG 20010904//EN"
 "http://www.w3.org/TR/2001/REC-SVG-20010904/DTD/svg10.dtd">
<svg version="1.0" xmlns="http://www.w3.org/2000/svg"
 width="512.000000pt" height="512.000000pt" viewBox="0 0 512.000000 512.000000"
 preserveAspectRatio="xMidYMid meet">

<g transform="translate(0.000000,512.000000) scale(0.100000,-0.100000)"
fill="#000000" stroke="none">
<path d="M0 2560 l0 -2560 2560 0 2560 0 0 2560 0 2560 -2560 0 -2560 0 0
-2560z m4400 1999 c70 -33 126 -89 159 -159 l26 -55 0 -1770 0 -1770 -27 -57
c-31 -66 -87 -124 -154 -158 l-49 -25 -1170 -7 c-1512 -10 -2388 -6 -2435 10
-52 18 -131 81 -167 134 -21 32 -35 70 -43 115 -8 50 -10 518 -8 1798 l3 1730
27 55 c42 85 89 130 174 165 l59 25 1775 -3 1775 -2 55 -26z"/>
<path d="M2320 3861 c-258 -46 -476 -160 -673 -350 -275 -265 -407 -575 -407
-957 0 -294 81 -557 241 -784 78 -110 435 -456 514 -498 42 -22 204 -73 249
-78 22 -3 48 -10 59 -16 11 -5 83 -13 161 -18 190 -10 325 7 482 60 66 22 126
42 135 44 86 22 334 206 441 328 185 212 295 426 345 674 24 123 25 401 0 535
-48 264 -162 481 -357 679 -267 272 -581 402 -959 399 -79 -1 -176 -8 -231
-18z m445 -375 c146 -35 287 -85 319 -115 12 -10 36 -26 53 -35 18 -9 46 -29
63 -44 16 -15 60 -54 98 -87 38 -33 81 -78 95 -100 14 -22 38 -53 53 -70 14
-16 35 -48 46 -70 11 -22 26 -47 33 -55 26 -32 66 -185 77 -302 11 -105 10
-132 -6 -226 -34 -205 -115 -369 -261 -529 -209 -228 -467 -344 -770 -345
-206 -1 -392 52 -563 159 -97 61 -272 235 -329 328 -138 222 -187 481 -132
705 11 47 22 92 24 100 2 8 18 44 35 80 18 36 36 75 41 88 17 45 105 158 182
234 69 69 224 184 237 177 3 -2 38 15 78 36 155 81 443 114 627 71z"/>
<path d="M2425 3096 c-4 -74 -4 -143 -1 -154 5 -15 19 -21 64 -26 74 -9 76 -9
147 1 l60 8 0 150 0 150 -131 3 -132 3 -7 -135z"/>
<path d="M2427 2578 c-10 -166 -8 -691 2 -707 7 -10 38 -14 128 -14 66 0 125
3 131 7 9 5 12 115 12 417 l0 409 -133 0 -134 0 -6 -112z"/>
</g>
</svg>
