<?xml version="1.0" standalone="no"?>
<!DOCTYPE svg PUBLIC "-//W3C//DTD SVG 20010904//EN"
 "http://www.w3.org/TR/2001/REC-SVG-20010904/DTD/svg10.dtd">
<svg version="1.0" xmlns="http://www.w3.org/2000/svg"
 width="1050.000000pt" height="416.000000pt" viewBox="0 0 1050.000000 416.000000"
 preserveAspectRatio="xMidYMid meet">

<g transform="translate(0.000000,416.000000) scale(0.100000,-0.100000)"
fill="#000000" stroke="none">
<path d="M6209 2928 c-43 -16 -69 -49 -69 -88 0 -53 22 -76 96 -100 36 -12 68
-29 71 -37 13 -34 -60 -44 -108 -16 -28 17 -30 17 -52 -5 l-22 -23 23 -19 c49
-40 150 -49 193 -17 40 30 51 100 22 136 -10 11 -47 31 -83 43 -51 18 -65 28
-65 43 0 27 43 32 86 10 31 -17 33 -17 50 6 24 32 24 36 -8 53 -37 18 -103 25
-134 14z"/>
<path d="M8045 2924 c-146 -50 -146 -254 0 -309 68 -26 125 -14 180 38 66 64
73 152 18 217 -47 57 -127 79 -198 54z m98 -65 c63 -32 77 -111 28 -160 -78
-78 -201 22 -147 120 24 44 77 62 119 40z"/>
<path d="M1484 2708 c15 -488 59 -708 192 -973 106 -209 238 -347 444 -465 41
-23 85 -42 97 -42 32 -1 200 103 285 176 161 137 290 356 362 612 51 182 72
357 82 692 l7 222 -738 0 -738 0 7 -222z m1431 20 c-11 -322 -38 -554 -80
-696 l-16 -53 -37 30 c-20 16 -154 122 -297 235 -143 114 -265 205 -272 204
-7 -2 -137 -102 -289 -223 -153 -121 -286 -226 -295 -233 -16 -11 -20 -7 -34
40 -42 142 -69 374 -80 696 l-6 172 706 0 706 0 -6 -172z m-410 -614 l284
-226 -15 -37 c-9 -20 -18 -42 -21 -48 -3 -7 -10 -13 -15 -13 -5 0 -117 85
-248 189 -131 104 -247 195 -258 202 -18 11 -42 -5 -238 -161 -121 -95 -238
-189 -261 -208 l-43 -34 -25 53 c-13 30 -21 57 -17 61 14 13 565 448 569 448
1 0 131 -102 288 -226z m-45 -225 l240 -190 -40 -62 c-84 -133 -237 -272 -381
-346 l-66 -35 -69 38 c-148 81 -291 211 -374 342 l-39 62 241 191 c133 105
243 191 244 191 2 0 112 -86 244 -191z"/>
<path d="M2760 2840 c-21 -21 -26 -81 -10 -130 8 -24 8 -24 9 7 1 41 10 63 26
63 22 0 24 -26 9 -92 -10 -40 -13 -83 -9 -119 5 -51 4 -57 -15 -62 -12 -3 -20
-13 -20 -25 0 -24 16 -38 22 -20 7 20 35 1 42 -27 5 -18 1 -35 -9 -51 -16 -24
-45 -33 -45 -13 0 6 -11 25 -24 42 -29 39 -46 89 -46 133 0 30 -3 34 -28 34
-15 0 -37 -7 -49 -15 -12 -8 -28 -12 -37 -9 -12 5 -16 0 -16 -19 0 -17 18 -42
58 -81 l57 -57 -27 -20 c-38 -28 -40 -85 -4 -99 13 -5 33 -6 45 -3 46 12 90
-44 59 -75 -10 -10 -16 -8 -29 9 -11 15 -22 20 -34 15 -14 -5 -15 -9 -5 -21 9
-10 9 -15 1 -15 -6 0 -11 -7 -11 -15 0 -8 5 -15 10 -15 6 0 10 -7 10 -15 0
-17 35 -21 45 -5 4 6 15 8 24 5 14 -4 21 6 36 56 l19 62 -27 21 c-35 29 -34
48 6 66 34 16 34 17 29 145 -1 17 1 64 4 105 3 51 2 70 -5 60 -20 -29 -19 -4
1 50 32 87 34 115 7 134 -31 21 -45 20 -69 -4z"/>
<path d="M1813 2824 c-38 -16 -44 -33 -9 -27 18 4 26 0 31 -16 8 -25 0 -39
-29 -52 -15 -7 -7 -8 32 -6 62 5 77 17 85 72 l6 40 -42 1 c-23 1 -57 -5 -74
-12z m52 -14 c-3 -5 -10 -10 -16 -10 -5 0 -9 5 -9 10 0 6 7 10 16 10 8 0 12
-4 9 -10z"/>
<path d="M2573 2825 c-40 -18 -42 -31 -5 -30 21 0 28 -5 30 -23 3 -17 -2 -25
-17 -29 -31 -8 -25 -23 9 -23 44 0 87 25 94 55 4 14 11 25 16 25 6 0 10 6 10
14 0 8 -11 13 -27 14 -16 0 -39 3 -53 6 -14 3 -40 -1 -57 -9z m57 -9 c0 -2 -7
-6 -15 -10 -8 -3 -15 -1 -15 4 0 6 7 10 15 10 8 0 15 -2 15 -4z"/>
<path d="M1576 2815 c4 -8 11 -15 17 -15 6 0 2 -6 -8 -14 -18 -13 -18 -14 6
-26 23 -12 89 -78 89 -89 0 -10 61 -41 80 -41 10 0 21 7 24 16 8 20 10 17 -37
39 -45 21 -68 52 -76 103 -6 37 -31 57 -31 25 -1 -17 -1 -17 -14 0 -17 22 -58
24 -50 2z"/>
<path d="M2086 2786 c-19 -20 -39 -48 -42 -61 -7 -27 -1 -91 10 -116 5 -12 1
-18 -13 -22 -29 -7 -26 -24 4 -31 46 -12 22 -96 -27 -96 -18 0 -63 49 -72 78
-6 17 -11 17 -61 7 -70 -14 -85 -27 -54 -49 13 -9 29 -16 35 -16 6 0 18 -8 25
-17 12 -15 12 -16 -4 -10 -9 3 -28 2 -42 -3 -20 -8 -25 -16 -25 -46 0 -32 4
-37 40 -51 22 -9 40 -20 40 -25 0 -16 -63 -37 -82 -27 -26 14 -51 11 -45 -5 3
-8 -1 -17 -9 -20 -16 -6 -19 -36 -3 -36 6 0 8 -9 4 -20 -5 -15 -2 -20 13 -20
11 0 25 7 32 15 7 8 18 14 24 13 7 -2 27 13 44 33 18 20 45 42 62 49 35 15 37
21 10 38 -28 17 -26 42 5 42 15 0 31 9 41 25 9 14 24 25 34 25 9 0 25 9 34 19
21 23 49 110 41 129 -2 7 2 23 10 35 21 33 5 52 -23 27 -28 -27 -37 -9 -16 35
22 47 55 55 117 30 13 -6 16 -3 11 9 -5 13 1 16 29 16 20 0 46 9 62 22 l28 21
-49 15 c-27 8 -72 16 -100 19 -49 4 -54 3 -88 -31z"/>
<path d="M2420 2800 c0 -12 -5 -17 -14 -14 -23 9 -31 -18 -11 -33 11 -7 14
-13 8 -13 -12 0 -26 -30 -18 -38 3 -3 16 1 30 8 20 11 27 11 40 0 8 -7 15 -18
15 -24 0 -6 14 -17 31 -25 26 -12 33 -11 46 1 13 13 8 19 -36 52 -36 25 -51
43 -51 59 0 23 -17 47 -32 47 -4 0 -8 -9 -8 -20z"/>
<path d="M1931 2757 c-9 -28 -24 -43 -66 -66 -68 -38 -85 -63 -84 -121 0 -25
3 -39 6 -32 2 6 17 12 32 12 15 0 36 6 46 14 14 10 25 11 37 5 12 -7 18 -6 18
1 0 6 8 9 18 6 15 -5 19 0 19 26 1 18 4 56 8 84 5 37 3 59 -8 79 l-14 28 -12
-36z"/>
<path d="M2504 2765 c11 -8 25 -15 31 -15 6 0 20 7 31 15 17 13 15 14 -31 14
-46 0 -48 -1 -31 -14z"/>
<path d="M1731 2761 c-11 -7 -9 -10 7 -15 25 -8 74 3 66 15 -7 11 -55 11 -73
0z"/>
<path d="M2690 2750 c-6 -11 -35 -34 -65 -51 -51 -29 -95 -70 -95 -90 0 -4 14
-14 31 -23 28 -14 33 -14 55 1 15 9 35 13 53 10 27 -6 28 -4 39 44 21 91 10
160 -18 109z"/>
<path d="M2376 2654 c-3 -9 -3 -20 0 -26 4 -6 -1 -8 -13 -4 -27 9 -54 -21 -32
-35 8 -5 21 -9 29 -10 10 0 11 -2 3 -6 -17 -6 -16 -43 1 -43 7 0 19 7 26 15
13 16 40 21 40 7 0 -7 111 -72 124 -72 4 0 2 9 -5 21 -6 12 -9 30 -6 40 4 15
0 19 -19 19 -46 0 -93 27 -100 57 -12 49 -36 68 -48 37z"/>
<path d="M1585 2649 c4 -6 -1 -17 -11 -24 -18 -13 -18 -14 0 -28 11 -8 16 -19
12 -26 -10 -15 21 -26 38 -12 7 6 16 8 20 4 3 -4 31 -8 61 -10 52 -3 55 -2 55
20 0 20 -4 23 -24 20 -38 -8 -92 15 -104 42 -7 15 -20 25 -32 25 -13 0 -18 -4
-15 -11z"/>
<path d="M1750 2476 c-6 -8 -10 -25 -8 -38 2 -18 -2 -24 -23 -26 -22 -3 -29 2
-37 27 -7 20 -18 31 -30 31 -26 0 -33 -10 -22 -30 7 -14 6 -17 -8 -16 -11 1
-17 -6 -17 -19 0 -11 6 -19 13 -17 6 1 12 -5 12 -13 0 -18 23 -19 50 -2 17 10
22 9 29 -1 6 -10 14 -10 36 -2 16 6 34 9 42 6 10 -4 12 1 8 17 -4 15 1 32 14
48 15 20 17 29 9 37 -16 16 -53 15 -68 -2z"/>
<path d="M2565 2389 c-4 -22 -13 -43 -21 -46 -18 -7 -43 14 -55 45 -10 26 -44
27 -44 2 0 -8 -6 -20 -13 -26 -11 -8 -11 -12 2 -23 9 -8 16 -19 16 -25 0 -8
16 -11 43 -11 108 4 107 4 107 28 0 12 7 33 16 45 20 29 12 52 -20 52 -21 0
-25 -6 -31 -41z"/>
<path d="M2176 1957 c-20 -11 -36 -25 -36 -33 0 -8 -10 -14 -26 -14 -14 0 -23
-4 -19 -10 3 -5 19 -10 35 -10 16 0 32 5 35 10 3 6 1 10 -4 10 -6 0 -11 5 -11
10 0 15 27 12 33 -4 3 -7 -1 -23 -9 -35 -19 -27 -7 -27 55 -1 34 15 51 30 61
53 7 18 15 34 17 37 9 14 -100 3 -131 -13z m64 -1 c0 -2 -7 -6 -15 -10 -8 -3
-15 -1 -15 4 0 6 7 10 15 10 8 0 15 -2 15 -4z"/>
<path d="M2295 1910 c-4 -13 -31 -33 -69 -51 -38 -18 -69 -41 -79 -58 -20 -35
-24 -62 -5 -43 15 15 31 16 22 0 -5 -8 3 -9 29 -5 27 4 37 2 37 -7 0 -21 33
-44 60 -43 25 2 25 3 27 109 3 101 -7 144 -22 98z"/>
<path d="M2054 1875 c-3 -8 -3 -20 1 -27 4 -7 0 -5 -8 5 -14 17 -38 22 -50 10
-4 -3 0 -15 10 -25 9 -11 11 -18 5 -18 -7 0 -12 -10 -12 -21 0 -22 8 -22 53
-4 12 5 17 2 17 -10 0 -20 38 -12 58 13 11 14 10 18 -7 26 -11 5 -24 22 -30
37 -11 31 -28 38 -37 14z"/>
<path d="M2369 1849 c-24 -24 -24 -34 0 -68 11 -15 23 -40 27 -55 l7 -28 24
43 24 42 -22 24 c-17 18 -19 23 -7 23 23 0 49 -35 50 -67 1 -45 -11 -73 -29
-66 -10 4 -14 2 -10 -4 4 -5 -5 -15 -18 -21 -15 -7 -25 -20 -25 -32 0 -18 2
-19 20 -8 17 11 22 10 30 -2 15 -23 13 -29 -19 -61 -35 -34 -50 -36 -84 -9
-20 16 -27 33 -32 75 -4 30 -11 55 -16 55 -5 0 -9 -5 -9 -12 0 -7 -17 4 -37
24 -32 30 -43 35 -70 31 -24 -4 -33 -11 -33 -25 0 -22 42 -68 62 -68 8 0 25
-8 38 -17 l25 -18 -29 -5 c-66 -12 -53 -71 25 -110 47 -24 58 -45 36 -67 -13
-13 -19 -14 -31 -3 -9 7 -16 19 -16 26 0 8 -10 14 -25 14 -15 0 -23 -5 -20
-13 3 -6 -4 -17 -16 -22 -25 -11 -23 -30 3 -29 15 0 15 -2 2 -20 -19 -27 -18
-36 5 -36 10 0 25 10 34 23 12 17 18 19 27 10 18 -17 49 1 87 50 l32 42 -29
23 c-44 35 -38 47 22 47 49 0 53 2 74 35 12 19 32 45 43 58 12 12 21 28 21 35
0 7 7 22 15 34 12 17 12 22 1 26 -7 3 -19 0 -25 -6 -8 -8 -11 0 -11 30 0 80
-77 146 -121 102z"/>
<path d="M1932 1788 c-6 -6 -8 -17 -5 -24 3 -9 -2 -14 -16 -14 -14 0 -21 -6
-21 -20 0 -11 7 -20 15 -20 8 0 15 -7 15 -15 0 -21 27 -19 39 3 10 16 12 16
24 0 10 -12 17 -14 31 -6 12 7 27 5 49 -5 18 -8 43 -18 55 -22 22 -6 23 -5 16
17 -4 12 -7 28 -7 35 0 7 -19 12 -53 12 -59 0 -90 12 -99 40 -7 24 -29 33 -43
19z"/>
<path d="M2099 1619 c-8 -15 -8 -24 0 -32 22 -22 12 -37 -24 -37 -26 0 -39 6
-51 25 -9 14 -22 25 -30 25 -18 0 -29 -21 -14 -30 8 -5 5 -9 -9 -13 -27 -7
-28 -37 -1 -37 12 0 17 -5 14 -14 -8 -22 15 -30 35 -12 20 18 48 21 53 6 2 -7
16 -5 40 5 21 8 46 15 56 15 15 0 18 6 14 30 -2 17 1 37 8 45 14 17 15 17 -23
33 -40 17 -55 15 -68 -9z"/>
<path d="M3582 2813 c5 -144 17 -173 83 -198 72 -28 143 -8 182 52 14 22 18
51 20 145 l1 118 -39 0 -39 0 0 -110 c0 -97 -2 -112 -20 -130 -11 -11 -31 -20
-45 -20 -14 0 -34 9 -45 20 -18 18 -20 33 -20 130 l0 110 -41 0 -41 0 4 -117z"/>
<path d="M4050 2770 l0 -160 35 0 34 0 3 97 3 97 74 -97 c68 -89 77 -97 107
-97 l34 0 0 161 0 160 -37 -3 -38 -3 -3 -70 c-1 -38 -4 -78 -5 -88 -1 -11 -25
14 -70 73 -63 82 -72 90 -103 90 l-34 0 0 -160z"/>
<path d="M4531 2770 l-2 -160 40 0 41 0 0 160 0 160 -38 0 -39 0 -2 -160z"/>
<path d="M4780 2927 c0 -1 29 -74 64 -162 64 -160 64 -160 96 -160 32 0 32 1
91 145 80 197 77 180 31 180 l-39 0 -28 -77 c-16 -43 -34 -91 -41 -108 l-13
-30 -14 35 c-8 19 -27 68 -41 108 l-28 72 -39 0 c-21 0 -39 -1 -39 -3z"/>
<path d="M5270 2770 l0 -160 125 0 125 0 0 30 0 30 -90 0 -90 0 0 35 0 35 75
0 75 0 0 30 0 30 -75 0 -75 0 0 30 0 30 68 1 c37 1 75 1 85 0 13 -2 17 5 17
33 l0 36 -120 0 -120 0 0 -160z"/>
<path d="M5690 2771 l2 -161 39 0 39 0 0 50 c0 48 1 50 28 50 21 0 34 -11 60
-50 30 -46 35 -50 72 -50 22 0 40 3 40 6 0 4 -16 28 -35 54 l-34 47 25 22 c49
43 53 115 8 161 -23 23 -33 25 -135 28 l-110 4 1 -161z m191 73 c6 -8 8 -25 5
-39 -6 -22 -12 -25 -51 -25 -25 0 -48 -1 -52 -2 -12 -4 -16 74 -4 81 17 11 89
0 102 -15z"/>
<path d="M6560 2770 l0 -160 40 0 40 0 0 160 0 160 -40 0 -40 0 0 -160z"/>
<path d="M6810 2895 l0 -35 50 0 50 0 0 -125 0 -125 35 0 35 0 0 125 0 125 50
0 50 0 0 35 0 35 -135 0 -135 0 0 -35z"/>
<path d="M7232 2908 c104 -164 108 -173 108 -237 l0 -62 38 3 37 3 5 70 c5 65
9 77 62 158 l58 87 -45 0 c-44 0 -45 -1 -77 -60 -18 -33 -35 -60 -39 -60 -3 0
-21 27 -40 60 -33 59 -35 60 -78 60 -42 0 -43 0 -29 -22z"/>
<path d="M8430 2770 l0 -160 35 0 35 0 0 60 0 60 75 0 75 0 0 35 0 35 -75 0
-75 0 0 30 c0 22 5 30 18 31 9 0 46 1 82 2 l65 2 3 33 3 32 -120 0 -121 0 0
-160z"/>
<path d="M7790 2394 c-190 -51 -304 -245 -256 -434 31 -121 108 -207 224 -251
48 -17 73 -20 152 -17 119 5 188 36 260 115 146 160 116 420 -63 538 -92 61
-207 79 -317 49z m217 -166 c54 -35 93 -113 93 -184 0 -80 -41 -151 -109 -186
-68 -36 -121 -36 -188 -3 -74 37 -106 90 -111 181 -6 100 28 162 113 208 47
26 152 18 202 -16z"/>
<path d="M8580 2396 c-99 -29 -162 -71 -208 -138 -129 -189 -66 -436 136 -535
52 -25 67 -28 167 -28 131 0 175 16 256 92 110 103 143 251 89 396 -31 82
-114 166 -195 196 -74 28 -184 36 -245 17z m195 -159 c21 -12 53 -41 69 -65
61 -87 42 -237 -38 -296 -92 -69 -209 -58 -283 27 -41 47 -56 96 -51 168 8
113 90 189 203 189 44 0 71 -6 100 -23z"/>
<path d="M3200 2393 c0 -4 52 -162 116 -350 l117 -343 67 0 68 0 29 83 c17 45
51 144 78 220 26 76 49 136 51 134 2 -2 37 -100 78 -218 l74 -214 69 -3 70 -3
113 338 c62 186 115 344 118 351 3 9 -16 12 -77 12 l-80 0 -35 -112 c-19 -62
-52 -167 -72 -233 l-38 -120 -75 233 -76 233 -69 -3 -70 -3 -75 -229 c-41
-126 -77 -223 -80 -215 -2 8 -34 111 -71 229 l-66 215 -82 3 c-45 2 -82 -1
-82 -5z"/>
<path d="M4346 2057 c-80 -188 -146 -345 -146 -350 0 -4 35 -7 78 -7 l77 0 29
75 29 76 150 -3 149 -3 28 -70 28 -70 82 -3 c76 -3 82 -1 76 15 -4 10 -70 168
-148 351 l-141 332 -72 0 -72 0 -147 -343z m304 -64 c0 -2 -38 -3 -85 -3 -53
0 -85 4 -85 11 0 5 19 55 42 111 l41 100 44 -108 c23 -60 43 -109 43 -111z"/>
<path d="M4890 2325 l0 -75 105 0 105 0 0 -275 0 -275 75 0 75 0 0 275 0 274
108 3 107 3 0 70 0 70 -287 3 -288 2 0 -75z"/>
<path d="M5580 2050 l0 -350 265 0 265 0 0 70 0 70 -190 0 -190 0 0 70 0 70
165 0 165 0 0 70 0 70 -165 0 -165 0 0 70 0 70 188 0 189 0 -1 68 -1 67 -262
3 -263 2 0 -350z"/>
<path d="M6278 2394 c-5 -4 -8 -162 -8 -351 l0 -343 80 0 80 0 0 110 0 110 59
0 58 0 73 -110 73 -110 88 0 c49 0 89 2 89 5 0 3 -36 58 -80 121 l-79 116 46
32 c114 76 132 254 37 350 -61 61 -99 70 -314 74 -107 2 -198 0 -202 -4z m390
-168 c46 -40 35 -124 -19 -151 -19 -10 -60 -15 -124 -15 l-95 0 0 93 c0 52 2
96 4 98 2 2 51 2 109 -1 83 -4 109 -9 125 -24z"/>
<path d="M7020 2050 l0 -350 240 0 240 0 0 70 0 70 -160 0 -160 0 -2 278 -3
277 -77 3 -78 3 0 -351z"/>
</g>
</svg>
